<svg xmlns="http://www.w3.org/2000/svg" width="88" height="52" viewBox="0 0 88 52" fill="none">
  <path d="M77.8021 0.274391H74.9057L66.7777 16.8146L64.2918 11.7555L62.6007 8.31411L58.6664 0.308283L53.0415 11.7555L56.9753 19.7613L58.6664 23.2027L62.6007 31.2085L68.2261 19.7613L77.8021 0.274391Z" fill="white"/>
  <path d="M49.6701 14.1624L42.8455 0.274643H31.5947L44.0451 25.61L49.6701 14.1624Z" fill="white"/>
  <path d="M69.3202 21.9878L63.6948 33.435L70.5034 47.2897H81.7537L69.3202 21.9878Z" fill="white"/>
  <path d="M56.3895 27.8362L54.6984 24.3949L50.7642 16.389L45.1392 27.8362L35.5796 47.2897H38.3921L46.5452 30.698L49.073 35.8421L50.7642 39.2834L54.6984 47.2892L60.3238 35.8421L56.3895 27.8362Z" fill="white"/>
  <path d="M29.9241 33.7429H14.663L23.3916 15.9805L36.0851 41.8105L41.71 30.3629L29.0169 4.53333L27.6109 1.67152L21.9855 13.1183L5.19336 47.2896H8.00626L13.4231 36.2662H31.164L29.9241 33.7429Z" fill="white"/>
</svg>